# xmcd
#
# Track frame offsets:
#	150
#	15343
#	30623
#	46894
#	61446
#	71514
#	90289
#	113112
#	129033
#	144401
#	157468
#	171264
#	187825
#	199874
#	216173
#	227872
#	246518
#
# Disc length: 3389 seconds
#
# Revision: 0
# Processed by: cddbd v1.5.2PL0 Copyright (c) Steve Scherf et al.
# Submitted via: FairStars CD Ripper 1.90
#
DISCID=e80d3b11
DTITLE=Various Artist - 100 Hits Country Hits Disc 1
DYEAR=2015
DGENRE=Country
TTITLE0=19 Something (Mark Wills)
TTITLE1=Better Off In A Pine Box (Doug Stone)
TTITLE2=Mi Vida Loca (Live) (Pam Tillis)
TTITLE3=Hell And High Water ( T. Graham Brown)
TTITLE4=True Love Ways (Live) (Mickey Gilly)
TTITLE5=Angel Of The Morning (Juice Newton)
TTITLE6=Fast Movin' Train (Restless Heart)
TTITLE7=Old Weakness (Live) (Tanya Tucker)
TTITLE8=Keep It In The Middle Of The Road (Exile)
TTITLE9=You Really Had Me Going (Holly Dunn)
TTITLE10=16th Avenue (Lacy J. Dalton)
TTITLE11=Half Past Forever (T.G. Sheppard)
TTITLE12=Even Cow Girls Get The Blues (Lynn Anderson)
TTITLE13=Shake The Sugar Tree (Live) (Pam Tillis)
TTITLE14=Before The Next Teardrop Falls (Freddy Fender)
TTITLE15=Wish You Were Here (Mark Wills)
TTITLE16=Blue, Blue Day (Don Gibson)
EXTD=
EXTT0=
EXTT1=
EXTT2=
EXTT3=
EXTT4=
EXTT5=
EXTT6=
EXTT7=
EXTT8=
EXTT9=
EXTT10=
EXTT11=
EXTT12=
EXTT13=
EXTT14=
EXTT15=
EXTT16=
PLAYORDER=
